# xmcd
#
# Track frame offsets:
#	150
#	12903
#	22837
#	47369
#	55334
#	67311
#	76937
#	93510
#	100022
#	110293
#	124857
#	133841
#	145591
#	167267
#	179856
#	191590
#
# Disc length: 2634 seconds
#
# Revision: 0
# Processed by: cddbd v1.5.2PL0 Copyright (c) Steve Scherf et al.
# Submitted via: EasyCDDAExtractor 15.2.5.1
#
DISCID=d20a4810
DTITLE=А. Козлов - А. Макаревич - Пионерские блатные песни
DYEAR=1996
DGENRE=
TTITLE0=В кейптаунском порту
TTITLE1=На Невском проспекте у бара
TTITLE2=В кепке на бок и зуб золотой
TTITLE3=Юнга Билл
TTITLE4=Где-то в городе
TTITLE5=Дело было очень поздней осенью
TTITLE6=По тундре
TTITLE7=Один поставил, другой покушал
TTITLE8=В нашу гавань заходили корабли
TTITLE9=Джон Грэй
TTITLE10=Серебрится серенький дымок
TTITLE11=Марьяна
TTITLE12=Огни притона
TTITLE13=Когда мне было 10 лет
TTITLE14=Помню, помню, помню я
TTITLE15=Мама, я лётчика люблю
EXTD=
EXTT0=
EXTT1=
EXTT2=
EXTT3=
EXTT4=
EXTT5=
EXTT6=
EXTT7=
EXTT8=
EXTT9=
EXTT10=
EXTT11=
EXTT12=
EXTT13=
EXTT14=
EXTT15=
PLAYORDER=
